<?xml version="1.0" standalone="no"?>
<!DOCTYPE svg PUBLIC "-//W3C//DTD SVG 20010904//EN"
 "http://www.w3.org/TR/2001/REC-SVG-20010904/DTD/svg10.dtd">
<svg version="1.0" xmlns="http://www.w3.org/2000/svg"
 width="358.000000pt" height="358.000000pt" viewBox="0 0 358.000000 358.000000"
 preserveAspectRatio="xMidYMid meet">
<metadata>
Created by potrace 1.14, written by Peter Selinger 2001-2017
</metadata>
<g transform="translate(0.000000,358.000000) scale(0.100000,-0.100000)"
fill="#000000" stroke="none">
<path d="M1630 2679 c-25 -5 -121 -23 -215 -39 -135 -24 -185 -37 -242 -65
-40 -20 -73 -38 -73 -41 0 -4 7 -4 15 0 30 11 13 -11 -83 -106 -90 -90 -97
-99 -89 -123 6 -17 6 -30 0 -34 -15 -10 -53 -77 -53 -94 0 -9 -7 -22 -15 -31
-8 -8 -16 -23 -18 -33 -2 -10 -14 -40 -27 -68 -26 -58 -27 -75 -11 -171 12
-67 14 -72 52 -95 73 -44 72 -41 64 -158 -5 -81 -3 -124 10 -181 21 -97 34
-130 51 -130 23 0 21 -34 -6 -95 -9 -22 -23 -64 -31 -93 l-13 -52 54 -55 c87
-88 115 -92 635 -86 l140 1 21 -47 c12 -27 34 -86 49 -133 15 -47 29 -87 31
-89 8 -9 152 -30 207 -30 54 -1 135 28 145 52 2 4 10 7 17 7 28 0 85 61 85 90
0 43 10 60 34 60 12 0 45 7 73 15 l51 15 56 116 c31 63 56 128 56 145 0 16
-11 47 -25 69 -34 55 -62 143 -68 218 -5 59 -3 64 23 90 27 26 29 32 39 171
l11 144 -46 73 c-25 40 -52 78 -60 84 -8 7 -14 18 -14 25 0 21 -34 44 -76 50
-38 7 -41 9 -63 68 -12 34 -26 70 -32 79 -15 29 -10 42 21 56 28 13 29 14 16
45 -8 18 -24 57 -37 87 -13 30 -29 62 -36 71 -7 8 -13 23 -13 32 0 21 -41 50
-165 119 l-100 56 -130 11 c-144 12 -151 12 -215 0z m-110 -105 c14 -3 32 -11
40 -19 8 -7 51 -32 95 -55 44 -24 84 -47 90 -51 5 -5 -27 -9 -73 -9 -53 0 -82
-4 -82 -11 0 -6 -6 -9 -14 -6 -7 3 -19 0 -25 -6 -6 -6 -11 -7 -11 -3 0 5 -6 3
-14 -3 -8 -6 -18 -11 -22 -9 -15 4 -104 -24 -104 -33 0 -5 -12 -4 -27 2 -16 7
-37 15 -48 19 -11 4 -39 15 -61 25 -28 11 -53 15 -73 10 -49 -11 -55 4 -14 34
21 15 44 35 52 44 7 9 19 17 26 17 6 0 18 11 25 25 10 18 24 26 59 30 25 4 50
7 54 9 15 3 101 -3 127 -10z"/>
</g>
</svg>
